<svg width="24" height="24" viewBox="0 0 24 24" fill="none" xmlns="http://www.w3.org/2000/svg">
<path d="M6.37592 10.068C6.16317 10.6899 6.05504 11.3427 6.05592 12C6.05592 12.734 6.18792 13.437 6.43192 14.086C6.73603 14.8972 7.21372 15.6321 7.83156 16.2393C8.4494 16.8466 9.19247 17.3115 10.0088 17.6015C10.8251 17.8916 11.6949 17.9998 12.5574 17.9185C13.4199 17.8372 14.2542 17.5684 15.0019 17.131H15.0029C16.181 16.4404 17.0861 15.3661 17.5669 14.088H12.2199V10.132H21.8249C22.0733 11.4405 22.0584 12.7854 21.7809 14.088C21.3001 16.3399 20.0568 18.3568 18.2609 19.798C16.4871 21.2264 14.2773 22.0035 11.9999 22C10.2829 22.001 8.59455 21.5597 7.09755 20.7187C5.60056 19.8778 4.34538 18.6655 3.45293 17.1986C2.56049 15.7317 2.06086 14.0597 2.00218 12.3437C1.9435 10.6276 2.32776 8.92542 3.11792 7.401C3.96089 5.77291 5.2353 4.40796 6.8018 3.4554C8.36829 2.50284 10.1665 1.99936 11.9999 2C14.4259 2 16.6509 2.864 18.3829 4.302L15.1429 6.954C14.3839 6.48164 13.5282 6.18643 12.6394 6.09034C11.7507 5.99424 10.8516 6.09972 10.0092 6.39894C9.16682 6.69816 8.40269 7.18342 7.77366 7.81864C7.14463 8.45386 6.66688 9.2227 6.37592 10.068Z" fill="#66FCF1"/>
</svg>
