<svg width="24" height="24" viewBox="0 0 24 24" fill="none" xmlns="http://www.w3.org/2000/svg">
<path d="M6.37598 10.068C6.16323 10.6899 6.0551 11.3427 6.05598 12C6.05598 12.734 6.18798 13.437 6.43198 14.086C6.73609 14.8972 7.21378 15.6321 7.83162 16.2393C8.44946 16.8466 9.19253 17.3115 10.0088 17.6015C10.8251 17.8916 11.695 17.9998 12.5574 17.9185C13.4199 17.8372 14.2542 17.5684 15.002 17.131H15.003C16.181 16.4404 17.0862 15.3661 17.567 14.088H12.22V10.132H21.825C22.0734 11.4405 22.0584 12.7854 21.781 14.088C21.3002 16.3399 20.0568 18.3568 18.261 19.798C16.4872 21.2264 14.2774 22.0035 12 22C10.283 22.001 8.59461 21.5597 7.09762 20.7187C5.60062 19.8778 4.34544 18.6655 3.45299 17.1986C2.56055 15.7317 2.06092 14.0597 2.00224 12.3437C1.94356 10.6276 2.32782 8.92542 3.11798 7.401C3.96095 5.77291 5.23537 4.40796 6.80186 3.4554C8.36835 2.50284 10.1666 1.99936 12 2C14.426 2 16.651 2.864 18.383 4.302L15.143 6.954C14.384 6.48164 13.5283 6.18643 12.6395 6.09034C11.7507 5.99424 10.8517 6.09972 10.0093 6.39894C9.16688 6.69816 8.40276 7.18342 7.77372 7.81864C7.14469 8.45386 6.66694 9.2227 6.37598 10.068Z" fill="#66FCF1"/>
</svg>
